<svg width="22" height="22" viewBox="0 0 22 22" fill="none" xmlns="http://www.w3.org/2000/svg">
<g clip-path="url(#clip0_181_322)">
<g opacity="0.7">
<path opacity="0.85" d="M20.5113 17.4512C20.4285 18.0302 20.4285 18.5264 20.3458 19.1054C20.015 20.8422 18.5263 22.0001 16.7894 22.0001C9.59396 22.0828 2.97742 17.2858 0.827046 10.4212C0.330805 8.76702 0.0826846 7.11289 -2.21776e-05 5.37604C-0.0827289 3.5565 1.32329 1.57153 3.72178 1.57153C4.30073 1.57153 4.87968 1.57153 5.45862 1.57153C5.95486 1.57153 6.20299 1.73695 6.3684 2.23319C6.86464 3.72191 7.36088 5.21063 7.85712 6.78206C7.93983 7.19559 7.85712 7.44371 7.44359 7.77454C7.03005 8.10537 6.69923 8.35349 6.28569 8.68432C6.12028 8.76702 6.12028 8.93244 6.20299 9.09785C7.609 12.158 9.84208 14.3911 12.9022 15.7971C13.0676 15.8798 13.2331 15.8798 13.3158 15.7144C13.6466 15.3009 13.8947 14.97 14.2255 14.5565C14.4737 14.2257 14.8045 14.0603 15.218 14.2257C16.7067 14.7219 18.2782 15.2182 19.7669 15.7971C20.1804 15.9625 20.3458 16.2106 20.3458 16.6242C20.5113 16.8723 20.5113 17.2031 20.5113 17.4512ZM4.96238 3.14296C4.54885 3.14296 4.13532 3.14296 3.80449 3.14296C2.48118 3.14296 1.57141 3.97003 1.57141 5.29334C1.57141 6.53394 1.65411 7.77454 1.98494 8.93244C3.47366 14.3084 6.86464 17.8648 12.0752 19.6843C13.5639 20.1806 15.0526 20.4287 16.624 20.4287C17.7819 20.4287 18.609 19.767 18.7744 18.6091C18.8571 18.1129 18.7744 17.5339 18.7744 17.0377C17.6165 16.6242 16.4586 16.2933 15.3007 15.8798C15.218 15.8798 15.0526 15.9625 14.9699 16.0452C14.6391 16.376 14.391 16.7896 14.0601 17.1204C13.6466 17.6166 13.3985 17.6994 12.8195 17.4512C11.6616 17.0377 10.5864 16.4588 9.59396 15.7144C7.19547 13.9775 5.54133 11.7445 4.46614 9.01514C4.30073 8.5189 4.30073 8.18807 4.79697 7.85725C5.2105 7.52642 5.54133 7.2783 5.95486 6.94747C6.03757 6.86477 6.12028 6.69935 6.03757 6.61665C5.70674 5.45875 5.37592 4.30086 4.96238 3.14296Z" fill="#A7A9AC"/>
<path d="M21.2556 11.0001C20.8421 11.0001 20.5113 10.6692 20.4286 10.2557C20.1805 7.69179 19.1053 5.62412 17.203 3.96998C15.797 2.72938 14.2256 1.98502 12.3233 1.7369C12.1579 1.7369 11.9925 1.65419 11.7444 1.65419C11.2481 1.57149 10.9173 1.24066 10.9173 0.827124C10.9173 0.330884 11.3308 0.0827637 11.8271 0.0827637C14.1429 0.248177 16.2105 1.15795 18.0301 2.64667C20.3459 4.63164 21.5865 7.11284 21.9173 10.0903C22.0827 10.5865 21.7519 11.0001 21.2556 11.0001Z" fill="#A7A9AC"/>
<path d="M18.8571 10.0903C18.8571 10.5038 18.609 10.9173 18.1955 10.9173C17.7819 11 17.3684 10.6692 17.2857 10.173C16.8722 7.44364 15.3007 5.62409 12.6541 4.79702C12.3233 4.71431 12.0752 4.63161 11.7443 4.63161C11.2481 4.5489 11 4.21807 11.0827 3.80454C11.0827 3.39101 11.4962 3.06018 11.9925 3.14289C13.0677 3.22559 14.1428 3.55642 15.0526 4.13537C17.203 5.37597 18.4436 7.27822 18.9398 9.75943C18.8571 9.84213 18.8571 10.0075 18.8571 10.0903Z" fill="#A7A9AC"/>
<path d="M14.8872 11C14.4737 11 14.2255 10.8346 14.1428 10.4211C13.812 9.09777 12.9849 8.2707 11.6616 7.93987C11.2481 7.85716 11 7.44363 11.0827 7.0301C11.1654 6.61656 11.5789 6.36844 12.0752 6.45115C13.8947 6.78198 15.3834 8.3534 15.7143 10.0902C15.7143 10.5038 15.3834 11 14.8872 11Z" fill="#A7A9AC"/>
</g>
</g>
<defs>
<clipPath id="clip0_181_322">
<rect width="22" height="22" fill="white"/>
</clipPath>
</defs>
</svg>
