<svg width="16" height="15" viewBox="0 0 16 15" fill="none" xmlns="http://www.w3.org/2000/svg">
<path d="M1 14C1.05426 13.7945 1.10853 13.5889 1.16279 13.3834C1.48837 11.9447 1.81395 10.5573 2.1938 9.11858C2.24806 8.81028 2.35659 8.45059 2.41085 8.14229C2.41085 8.09091 2.46512 8.03953 2.51938 8.03953C3.17054 7.98814 3.76744 7.93676 4.4186 7.88538C5.28682 7.83399 6.15504 7.73123 7.02326 7.67984C7.67442 7.62846 8.37985 7.57708 9.03101 7.52569C9.57364 7.47431 10.1705 7.42292 10.7132 7.37154L10.7674 7.32016L10.7132 7.26877C10.3876 7.26877 10.1163 7.21739 9.7907 7.21739C8.75969 7.16601 7.67442 7.11462 6.64341 7.06324C5.77519 7.01186 4.85271 6.96047 3.9845 6.90909C3.49612 6.90909 3.06202 6.85771 2.57364 6.85771C2.51938 6.85771 2.51938 6.85771 2.46512 6.80632C2.35659 6.18972 2.1938 5.52174 2.08527 4.90514C1.75969 3.7747 1.54264 2.64427 1.27132 1.51383C1.27132 1.35968 1.21705 1.15415 1.16279 1C5.77519 3.10672 10.3876 5.21344 15 7.32016C10.3333 9.52964 5.66667 11.7905 1 14Z" fill="white"/>
</svg>
