<svg width="342" height="268" viewBox="0 0 342 268" fill="none" xmlns="http://www.w3.org/2000/svg">
<path d="M322.875 191.429C322.313 186.924 321.187 182.42 318.375 178.479C316.687 175.664 313.875 174.538 310.5 176.227C309.375 176.79 308.812 176.79 308.25 177.353C302.625 179.605 297 181.857 291.375 181.857C288.562 181.857 286.312 181.294 284.625 179.042C282.937 176.227 284.625 173.975 285.75 171.723C285.75 171.723 285.75 171.723 285.75 171.16C289.687 164.966 294.75 161.025 300.937 156.521C305.437 153.143 310.5 150.891 315.562 147.513C318.937 145.261 322.313 143.008 324.563 139.63C326.25 136.815 325.687 134.563 323.437 132.874C322.312 131.748 320.625 131.185 318.938 130.622C312.75 128.37 306 127.807 299.25 127.807C276.75 127.807 254.25 127.807 231.75 128.37C231.188 128.37 230.625 128.37 229.5 128.37C228.375 128.37 228.375 127.807 228.375 127.244C228.937 125.555 229.5 123.866 229.5 121.614C230.062 119.924 230.625 118.798 232.875 118.235C250.875 114.294 268.875 113.731 286.875 115.42C290.25 115.42 293.062 115.983 297 116.546C296.437 115.983 295.313 115.42 294.75 115.42C280.125 109.79 264.375 108.101 248.625 107.538C229.5 106.975 210.375 108.101 191.812 111.479C180.562 112.605 168.75 114.857 157.5 118.235C142.875 122.177 128.812 127.244 114.75 132.874C100.687 139.067 87.75 145.824 74.8125 153.706C64.125 160.462 54 168.345 45.5625 177.353C45 178.479 46.125 178.479 46.6875 178.479L47.25 177.916C51.75 175.101 56.25 172.849 60.75 170.034C66.9375 166.656 73.6875 163.84 81 162.151C82.125 161.588 83.25 161.588 83.8125 163.277C86.625 175.664 90 187.487 92.8125 199.874C93.375 201 93.9375 201.563 95.0625 201.563C101.25 201.563 108 201.563 114.187 201.563C142.875 201.563 171.563 201 200.813 201C207.563 201 212.625 196.496 213.75 190.303C213.75 189.177 213.75 188.614 212.063 188.614C209.813 188.614 207.562 188.614 205.312 188.614C172.125 188.614 138.937 189.177 106.312 189.177C104.625 189.177 104.062 189.177 103.5 187.487C102.375 181.857 100.687 175.664 99 170.034C98.4375 167.219 98.4375 167.219 101.25 167.219C132.75 167.219 164.813 166.656 196.313 166.656C200.25 166.656 204.75 166.656 208.687 166.656C213.75 166.656 219.375 162.151 220.5 157.647C222.75 149.765 224.437 141.319 226.687 133.437C227.25 131.748 227.812 131.185 229.5 131.185C250.312 131.185 271.687 131.185 292.5 130.622C297 130.622 302.062 130.622 306.562 131.185C311.062 131.748 315 132.311 318.938 134C322.313 135.689 322.875 137.378 320.063 140.193C317.25 143.008 313.312 145.261 309.937 147.513C301.5 152.017 293.062 157.084 286.875 164.403C284.062 167.219 281.812 170.597 281.25 175.101C280.687 179.605 282.375 182.983 286.875 184.109C289.687 185.235 292.5 184.672 295.312 184.672C300.937 184.109 306 181.857 311.625 179.605C313.875 178.479 315 179.042 316.687 180.731C317.812 182.42 318.937 184.672 319.5 186.924C321.75 194.244 321.75 201 322.312 208.319C322.312 209.445 322.312 210.008 324 210.008C325.687 210.008 325.125 208.882 325.125 208.319C324.562 202.126 324 196.496 322.875 191.429Z" stroke="white"/>
<path d="M171.562 220.706C171.562 212.261 178.313 205.504 186.75 205.504C195.188 205.504 201.938 211.698 201.938 220.706C201.938 229.151 195.188 235.908 186.75 235.908C178.313 235.908 171.562 229.151 171.562 220.706Z" stroke="white"/>
<path d="M136.687 221.269C136.687 229.714 129.938 236.471 120.938 236.471C112.5 236.471 106.312 229.714 106.312 221.269C106.312 212.824 113.063 206.067 122.063 206.067C130.5 206.067 136.687 212.824 136.687 221.269Z" stroke="white"/>
<path d="M339.187 228.025C339.187 220.706 333.562 214.513 326.25 213.387C325.687 213.387 324.562 212.823 324.562 213.95C325.125 216.202 323.437 219.017 325.687 220.706C326.25 221.269 326.25 221.832 326.25 222.395C326.25 224.084 326.25 226.336 326.25 228.025C326.25 228.588 326.25 229.714 325.687 229.714C324 230.84 324.562 231.966 324.562 233.655C324.562 235.345 324.562 236.471 324.562 238.16C324.562 239.286 324 239.286 323.437 239.286C322.875 239.286 322.312 239.286 321.75 238.16C321.187 234.781 322.875 231.403 320.062 228.588C320.625 225.21 318.375 221.832 321.75 219.017C321.75 219.017 321.75 218.454 321.75 217.891C321.75 216.765 321.75 215.076 321.75 213.95C321.75 212.823 321.187 212.823 320.062 212.823C314.437 213.95 309.375 219.017 308.25 225.21C307.125 233.092 307.687 240.412 308.25 248.294C308.25 250.546 309.375 252.798 309.375 255.05C309.375 255.613 309.375 256.739 310.5 257.302C312.187 261.244 315 263.496 318.937 264.622C329.625 268 339.187 260.681 339.75 249.983C339.75 242.101 339.187 234.781 339.187 228.025Z" stroke="white"/>
<path d="M325.688 222.395C325.688 221.269 325.125 220.706 324 220.706C322.875 220.706 322.312 221.269 322.312 222.395C322.312 224.084 322.312 225.21 322.312 226.899C322.312 228.025 322.875 228.588 324 228.588C325.125 228.588 326.25 228.025 325.688 226.899C325.688 226.336 325.688 225.21 325.688 224.647C325.688 224.084 325.125 222.958 325.688 222.395Z" stroke="white"/>
<path d="M46.125 177.916C46.125 178.479 46.6875 179.042 47.25 179.042C45.5625 180.731 43.3125 181.857 41.0625 183.546C42.75 181.294 44.4375 179.605 46.125 177.916Z" stroke="white"/>
<path d="M241.313 63.6219C184.5 64.1849 128.25 64.1849 71.4375 64.748C69.1875 64.748 68.625 64.1849 68.0625 62.4959C65.8125 53.4875 63 43.916 60.75 34.9076C60.1875 33.2185 59.625 32.6555 57.9375 32.6555C48.9375 32.6555 39.9375 33.2185 31.5 33.2185C23.625 33.2185 15.75 33.2185 8.4375 33.7816C5.0625 33.7816 2.8125 36.0337 2.8125 39.4118C2.8125 42.2269 5.0625 44.479 8.4375 44.479C19.125 44.479 29.8125 43.916 40.5 43.916C42.75 43.916 44.4375 43.916 46.6875 43.916C47.8125 43.916 48.9375 43.916 50.0625 43.916C51.75 43.916 52.3125 44.479 52.875 46.1681C60.1875 73.7564 67.5 101.345 74.8125 128.933C75.9375 132.874 77.0625 136.815 77.625 140.193C81.5625 137.378 85.5 135.126 89.4375 132.874C109.125 121.614 130.5 113.168 152.438 106.975C172.125 101.345 192.375 97.4034 212.625 96.2774C218.25 95.7143 223.875 96.2774 230.063 95.7143C230.625 95.7143 231.187 95.7143 232.312 95.7143C233.437 96.2774 235.125 96.2774 236.25 95.7143C236.25 94.5883 236.812 94.0253 236.812 92.8992C239.062 84.4538 241.313 76.0085 243 67.0001C244.125 63.6219 244.125 63.6219 241.313 63.6219Z" stroke="white"/>
<path d="M322.875 191.429C322.313 186.924 321.187 182.42 318.375 178.479C316.687 175.664 313.875 174.538 310.5 176.227C309.375 176.79 308.812 176.79 308.25 177.353C302.625 179.605 297 181.857 291.375 181.857C288.562 181.857 286.312 181.294 284.625 179.042C282.937 176.227 284.625 173.975 285.75 171.723C285.75 171.723 285.75 171.723 285.75 171.16C289.688 164.966 294.75 161.025 300.938 156.521C305.437 153.143 310.5 150.891 315.562 147.513C318.937 145.261 322.313 143.008 324.563 139.63C326.25 136.815 325.687 134.563 323.437 132.874C322.312 131.748 320.625 131.185 318.938 130.622C312.75 128.37 306 127.807 299.25 127.807C276.75 127.807 254.25 127.807 231.75 128.37C231.188 128.37 230.625 128.37 229.5 128.37C228.375 128.37 228.375 127.807 228.375 127.244C228.937 125.555 229.5 123.866 229.5 121.614C230.062 119.924 230.625 118.798 232.875 118.235C250.875 114.294 268.875 113.731 286.875 115.42C290.25 115.42 293.062 115.983 297 116.546C296.438 115.983 295.312 115.42 294.75 115.42C280.125 109.79 264.375 108.101 248.625 107.538C229.5 106.975 210.375 108.101 191.812 111.479C180.562 112.605 168.75 114.857 157.5 118.235C142.875 122.177 128.812 127.244 114.75 132.874C100.687 139.067 87.75 145.824 74.8125 153.706C64.125 160.462 54 168.345 45.5625 177.353C45 178.479 46.125 178.479 46.6875 178.479L47.25 177.916C51.75 175.101 56.25 172.849 60.75 170.034C66.9375 166.656 73.6875 163.84 81 162.151C82.125 161.588 83.25 161.588 83.8125 163.277C86.625 175.664 90 187.487 92.8125 199.874C93.375 201 93.9375 201.563 95.0625 201.563C101.25 201.563 108 201.563 114.187 201.563C142.875 201.563 171.562 201 200.812 201C207.562 201 212.625 196.496 213.75 190.303C213.75 189.177 213.75 188.614 212.062 188.614C209.812 188.614 207.562 188.614 205.312 188.614C172.125 188.614 138.937 189.177 106.312 189.177C104.625 189.177 104.062 189.177 103.5 187.487C102.375 181.857 100.688 175.664 99 170.034C98.4375 167.219 98.4375 167.219 101.25 167.219C132.75 167.219 164.813 166.656 196.312 166.656C200.25 166.656 204.75 166.656 208.687 166.656C213.75 166.656 219.375 162.151 220.5 157.647C222.75 149.765 224.438 141.319 226.688 133.437C227.25 131.748 227.812 131.185 229.5 131.185C250.312 131.185 271.688 131.185 292.5 130.622C297 130.622 302.062 130.622 306.562 131.185C311.062 131.748 315 132.311 318.938 134C322.313 135.689 322.875 137.378 320.063 140.193C317.25 143.008 313.312 145.261 309.937 147.513C301.5 152.017 293.062 157.084 286.875 164.403C284.062 167.219 281.812 170.597 281.25 175.101C280.688 179.605 282.375 182.983 286.875 184.109C289.688 185.235 292.5 184.672 295.312 184.672C300.938 184.109 306 181.857 311.625 179.605C313.875 178.479 315 179.042 316.687 180.731C317.812 182.42 318.937 184.672 319.5 186.924C321.75 194.244 321.75 201 322.312 208.319C322.312 209.445 322.312 210.008 324 210.008C325.687 210.008 325.125 208.882 325.125 208.319C324.562 202.126 324 196.496 322.875 191.429Z" fill="#61B846"/>
<path d="M171.562 220.706C171.562 212.261 178.313 205.504 186.75 205.504C195.188 205.504 201.938 211.698 201.938 220.706C201.938 229.151 195.188 235.908 186.75 235.908C178.313 235.908 171.562 229.151 171.562 220.706Z" fill="#024F9D"/>
<path d="M136.687 221.269C136.687 229.714 129.938 236.471 120.938 236.471C112.5 236.471 106.312 229.714 106.312 221.269C106.312 212.824 113.063 206.067 122.063 206.067C130.5 206.067 136.687 212.824 136.687 221.269Z" fill="#024F9D"/>
<path d="M339.187 228.025C339.187 220.706 333.562 214.513 326.25 213.387C325.687 213.387 324.562 212.823 324.562 213.95C325.125 216.202 323.437 219.017 325.687 220.706C326.25 221.269 326.25 221.832 326.25 222.395C326.25 224.084 326.25 226.336 326.25 228.025C326.25 228.588 326.25 229.714 325.687 229.714C324 230.84 324.562 231.966 324.562 233.655C324.562 235.344 324.562 236.471 324.562 238.16C324.562 239.286 324 239.286 323.437 239.286C322.875 239.286 322.312 239.286 321.75 238.16C321.187 234.781 322.875 231.403 320.062 228.588C320.625 225.21 318.375 221.832 321.75 219.017C321.75 219.017 321.75 218.454 321.75 217.891C321.75 216.765 321.75 215.076 321.75 213.95C321.75 212.823 321.187 212.823 320.062 212.823C314.437 213.95 309.375 219.017 308.25 225.21C307.125 233.092 307.687 240.412 308.25 248.294C308.25 250.546 309.375 252.798 309.375 255.05C309.375 255.613 309.375 256.739 310.5 257.302C312.187 261.244 315 263.496 318.937 264.622C329.625 268 339.187 260.681 339.75 249.983C339.75 242.101 339.187 234.781 339.187 228.025Z" fill="#024F9D"/>
<path d="M325.688 222.395C325.688 221.269 325.125 220.706 324 220.706C322.875 220.706 322.312 221.269 322.312 222.395C322.312 224.084 322.312 225.21 322.312 226.899C322.312 228.025 322.875 228.588 324 228.588C325.125 228.588 326.25 228.025 325.688 226.899C325.688 226.336 325.688 225.21 325.688 224.647C325.688 224.084 325.125 222.958 325.688 222.395Z" fill="#024F9D"/>
<path d="M46.125 177.916C46.125 178.479 46.6875 179.042 47.25 179.042C45.5625 180.731 43.3125 181.857 41.0625 183.546C42.75 181.294 44.4375 179.605 46.125 177.916Z" fill="#DEA554"/>
<path d="M241.313 63.6219C184.5 64.1849 128.25 64.1849 71.4375 64.748C69.1875 64.748 68.625 64.1849 68.0625 62.4959C65.8125 53.4875 63 43.916 60.75 34.9076C60.1875 33.2185 59.625 32.6555 57.9375 32.6555C48.9375 32.6555 39.9375 33.2185 31.5 33.2185C23.625 33.2185 15.75 33.2185 8.4375 33.7816C5.0625 33.7816 2.8125 36.0337 2.8125 39.4118C2.8125 42.2269 5.0625 44.479 8.4375 44.479C19.125 44.479 29.8125 43.916 40.5 43.916C42.75 43.916 44.4375 43.916 46.6875 43.916C47.8125 43.916 48.9375 43.916 50.0625 43.916C51.75 43.916 52.3125 44.479 52.875 46.1681C60.1875 73.7564 67.5 101.345 74.8125 128.933C75.9375 132.874 77.0625 136.815 77.625 140.193C81.5625 137.378 85.5 135.126 89.4375 132.874C109.125 121.614 130.5 113.168 152.438 106.975C172.125 101.345 192.375 97.4034 212.625 96.2774C218.25 95.7143 223.875 96.2774 230.063 95.7143C230.625 95.7143 231.188 95.7143 232.312 95.7143C233.438 96.2774 235.125 96.2774 236.25 95.7143C236.25 94.5883 236.812 94.0253 236.812 92.8992C239.062 84.4538 241.312 76.0085 243 67.0001C244.125 63.6219 244.125 63.6219 241.313 63.6219Z" fill="#024F9D"/>
<path d="M204.041 88.864C208.044 88.3276 210.855 84.6446 210.319 80.6378C209.783 76.631 206.103 73.8177 202.1 74.3542C198.097 74.8906 195.287 78.5736 195.823 82.5804C196.359 86.5871 200.038 89.4004 204.041 88.864Z" fill="#61B846" stroke="white" stroke-width="0.5"/>
<path d="M186.019 91.1196C190.022 90.5832 192.833 86.9002 192.297 82.8934C191.761 78.8866 188.082 76.0734 184.079 76.6098C180.076 77.1462 177.265 80.8292 177.801 84.836C178.337 88.8427 182.016 91.656 186.019 91.1196Z" fill="#61B846" stroke="white" stroke-width="0.5"/>
<path d="M97.1897 40.4494C101.193 39.913 104.003 36.23 103.467 32.2233C102.932 28.2165 99.252 25.4032 95.2489 25.9396C91.2459 26.476 88.4352 30.159 88.9711 34.1658C89.5071 38.1726 93.1866 40.9859 97.1897 40.4494Z" fill="#61B846" stroke="white" stroke-width="0.5"/>
<path d="M307.125 16.3278L312.75 57.9917C312.75 57.9917 294.75 62.4959 286.313 55.1766L287.438 61.3698C287.438 61.3698 269.438 65.8741 261 58.5547L261.562 64.748L223.875 69.2522C223.875 69.2522 218.812 68.1262 215.438 65.311L216.562 72.0673L187.875 76.0085C187.875 76.0085 179.438 73.7564 177.75 69.2522L178.875 76.0085L146.25 80.5127C146.25 80.5127 137.812 79.3867 136.687 70.9413C135.562 63.0589 128.812 19.143 128.812 19.143C128.812 19.143 132.75 11.8236 140.625 6.7564L147.937 60.8068L160.875 58.5547L154.688 12.9497C154.688 12.9497 159.188 6.19337 166.5 2.2522L174.938 57.9917L200.813 54.6135L198.562 37.1598C198.562 37.1598 204.75 29.8404 210.375 28.1514L213.75 52.3614L246.375 47.8572L244.125 32.0925C244.125 32.0925 250.875 23.6472 256.5 22.5211L258.75 46.7312L269.438 45.0421L267.188 29.2774C267.188 29.2774 273.375 21.9581 280.125 20.269L284.062 42.79L297 41.1009L294.75 25.3362C294.188 25.3362 300.938 16.8909 307.125 16.3278Z" fill="#61B846" stroke="white" stroke-width="0.5"/>
<path d="M102.375 40.5378L105.75 67L126 64.1849C126 64.1849 126.562 63.0588 127.125 67C127.688 70.9412 129.375 82.2017 129.375 82.2017C129.375 82.2017 130.5 101.345 107.438 105.849C106.312 105.849 78.1875 111.479 73.6875 79.3866C73.6875 79.3866 81 103.034 102.375 99.6555C102.938 99.6555 116.438 97.4034 118.688 85.0168L95.625 88.395C95.625 88.395 87.75 84.4538 84.9375 74.3194L84.375 69.2521L90.5625 68.6891L88.3125 50.6723L102.375 40.5378Z" fill="#61B846" stroke="white" stroke-width="0.5"/>
<path d="M111.938 157.647L102.938 143.572V143.009C108.562 136.252 115.312 137.378 117 137.941C120.375 134.563 129.938 135.689 130.5 135.689L144.563 145.824L141.75 146.387V145.261H142.875L130.5 136.815C129.375 136.815 120.375 135.689 117.563 138.504H117C116.438 138.504 109.688 136.252 104.063 143.009L111.938 155.395C113.625 153.706 119.813 149.202 127.688 149.765C128.25 148.639 131.625 145.261 140.063 145.261V146.387C131.063 146.387 128.25 150.891 128.25 150.891C119.25 150.328 112.5 157.084 111.938 157.647Z" fill="white"/>
<path d="M110.813 161.588L100.688 145.824L103.5 142.446L111.938 155.958C113.625 154.832 119.25 150.328 126.563 150.328C127.125 150.328 127.125 150.328 127.688 150.328C128.25 149.202 131.625 145.824 140.062 145.824C141.188 145.824 142.875 145.824 144 145.824H144.563L145.688 152.017H145.125C142.875 151.454 141.187 151.454 139.5 151.454C132.75 151.454 129.938 154.832 129.938 154.832C119.25 154.269 111.375 161.025 110.813 161.588ZM101.813 145.824L110.813 160.462C112.5 159.336 119.813 153.706 129.375 153.706C129.938 153.143 132.75 150.328 139.5 150.328C141.187 150.328 142.875 150.328 144.563 150.891L144 146.387C142.875 146.387 141.75 146.387 140.625 146.387C131.063 146.387 128.812 150.891 128.812 150.891H128.25C127.687 150.891 127.125 150.891 126.563 150.891C118.125 150.891 111.938 156.521 111.938 157.084V157.647L103.5 144.135L101.813 145.824Z" fill="white"/>
<path d="M167.063 132.874C165.375 132.874 164.25 132.874 163.125 133.437C163.688 133.437 164.813 133.437 165.375 133.437C172.125 133.437 177.75 138.504 177.75 145.261C177.75 152.017 172.125 157.084 165.375 157.084C159.75 157.084 155.25 153.706 153.562 148.639C154.688 155.395 160.313 160.462 167.063 160.462C174.375 160.462 180.562 154.269 180.562 146.95C180.562 139.067 174.938 132.874 167.063 132.874Z" fill="white"/>
<path d="M199.688 125.555C198.563 125.555 196.875 124.429 194.063 122.74V122.177C198.563 125.555 199.687 124.992 200.25 124.992C200.812 124.992 200.25 123.866 200.25 123.866C199.687 121.614 195.75 119.924 195.188 119.924L194.063 119.361H195.188C195.75 119.361 195.75 119.361 195.75 119.361C195.75 119.361 195.75 118.798 195.188 118.798C190.688 116.546 190.125 113.731 190.125 113.731C190.125 113.168 189.563 112.605 189.563 112.605C187.313 111.479 182.812 113.168 182.812 113.168V112.605C182.812 112.605 187.875 110.916 190.125 112.042C190.687 112.605 191.25 113.168 191.25 113.731C191.25 113.731 191.813 115.983 196.313 118.235L196.875 119.361C196.875 119.361 196.875 119.361 196.313 119.924C197.438 120.487 200.25 122.177 200.813 123.866C201.375 124.992 200.813 125.555 200.813 125.555C200.25 124.992 199.688 125.555 199.688 125.555Z" fill="white"/>
<path d="M195.188 126.681C192.375 126.681 190.125 123.866 190.125 123.866L190.688 123.303C190.688 123.303 195.188 127.807 198.563 124.429L199.125 124.992C197.438 126.118 196.313 126.681 195.188 126.681Z" fill="white"/>
<path d="M191.25 126.681C190.688 126.681 189.563 126.681 187.875 125.555C187.313 125.555 183.938 126.118 182.812 124.429H183.375C184.5 126.118 187.875 125.555 187.875 125.555C191.813 127.807 192.937 126.118 192.937 126.118H193.5C193.5 126.118 192.938 126.681 191.25 126.681Z" fill="white"/>
<path d="M224.438 150.891C224.438 150.891 223.312 149.202 218.25 145.824C214.875 144.135 213.75 142.445 213.75 141.882C213.75 141.319 213.75 141.319 213.75 141.319C213.75 141.319 214.875 139.63 214.312 135.689C213.75 132.874 210.375 127.244 208.125 126.118C207.562 125.555 207 125.555 206.438 126.118C205.875 126.118 205.875 126.681 205.875 126.681C205.875 127.807 208.125 130.622 208.687 131.185V133.437C208.687 133.437 205.313 130.622 203.625 130.059L198.562 126.118H196.875C197.438 126.681 199.125 129.496 202.5 131.748V132.311C198.563 129.496 196.875 126.681 196.875 126.681L198.562 125.555L203.625 130.059C205.313 130.622 208.687 132.874 208.687 133.437V132.311C208.687 131.748 205.875 128.933 205.875 127.244C205.875 126.681 206.437 126.118 207 126.118C207.562 125.555 208.125 126.118 209.25 126.118C212.063 127.807 215.438 133.437 216 136.252C216.563 140.193 215.437 141.882 215.437 141.882C215.437 141.882 215.437 141.882 215.437 142.445C215.437 143.008 216.562 144.135 219.937 146.387C223.875 148.639 225 150.328 224.438 150.891Z" fill="white"/>
<path d="M220.5 161.588L208.125 146.95C207.563 146.95 205.313 146.387 203.625 145.261C203.625 145.261 203.062 145.261 203.062 144.698H203.625C203.625 144.698 203.625 144.698 203.625 145.261C205.313 145.824 208.125 146.387 208.125 146.387L220.5 161.588Z" fill="white"/>
<path d="M200.813 134C200.813 134 196.313 129.496 195.188 128.933C194.063 127.807 194.062 126.681 194.062 126.681H194.625C194.625 126.681 194.625 127.807 195.75 128.933C196.312 129.496 200.813 133.437 200.813 134Z" fill="white"/>
<path d="M195.187 131.748C194.062 131.185 193.5 130.059 193.5 129.496C193.5 128.933 194.062 128.37 194.062 128.37V128.933C194.062 128.933 193.5 128.933 193.5 129.496C194.062 130.059 194.625 130.622 195.187 131.748Z" fill="white"/>
<path d="M197.438 136.815C195.188 134.563 194.063 133.437 194.625 132.311V131.748C194.625 131.185 195.188 131.185 195.75 131.185C197.438 131.185 200.813 135.689 200.813 136.252H200.25C199.125 135.126 196.875 131.185 195.188 131.185C195.188 131.185 194.625 131.185 194.625 131.748C194.625 132.874 194.625 134 197.438 136.815Z" fill="white"/>
<path d="M204.188 152.017C203.625 152.017 204.188 140.756 200.813 139.63C197.438 138.504 195.75 138.504 195.75 138.504L192.938 135.689C192.375 134.563 191.25 132.311 190.688 132.311C190.125 132.311 190.125 132.874 189.563 133.437H189C189.562 132.311 189.563 131.748 190.125 131.748C191.25 131.748 192.938 134.563 192.938 135.126L195.75 137.378C196.313 137.378 197.438 137.378 200.813 138.504C204.75 140.193 204.188 151.454 204.188 152.017Z" fill="white"/>
<path d="M194.062 146.387C193.5 145.824 182.25 133.437 183.937 126.681C183.937 126.681 184.5 126.681 185.062 126.681C185.625 126.681 186.187 127.807 186.187 128.933C186.187 128.933 187.312 133.437 189 134C190.687 134.563 190.687 136.815 190.125 137.941C190.687 137.941 192.375 139.067 192.937 141.882H192.375C192.375 139.63 190.125 138.504 189.562 138.504C189.562 138.504 190.125 135.689 188.437 135.126C186.75 134 185.062 130.059 185.062 129.496C185.062 128.37 184.5 127.807 183.937 127.807H183.375C182.812 133.437 194.625 146.387 194.062 146.387Z" fill="white"/>
<path d="M189.563 133.437C189 132.874 189.563 132.311 187.875 128.933C187.313 126.681 186.75 126.681 186.187 126.118C185.625 126.118 185.063 126.681 185.063 126.681H184.5C184.5 126.681 185.063 126.118 185.625 126.118C186.188 126.118 187.313 127.244 187.875 128.933C189.563 132.874 189.563 133.437 189.563 133.437Z" fill="white"/>
<path d="M190.688 132.311C190.125 129.496 188.438 128.933 188.438 128.933V128.37C188.438 128.37 190.688 128.933 190.688 132.311Z" fill="white"/>
<path d="M188.437 128.37H187.875L190.125 126.681L188.437 128.37Z" fill="white"/>
<path d="M187.875 127.807L187.312 127.244L189 126.118V126.681L187.875 127.807Z" fill="white"/>
<path d="M187.312 126.681L187.875 125.555L188.438 126.118L187.312 126.681Z" fill="white"/>
<path d="M200.813 117.672C200.813 117.109 200.25 114.857 201.375 114.294L201.938 113.731C201.938 113.731 202.5 112.605 203.062 112.605C203.625 112.605 203.625 112.605 204.187 112.605V113.168H203.625C203.063 113.168 202.5 114.294 202.5 114.294H201.938C201.375 114.857 201.375 115.983 201.375 116.546L200.813 117.672Z" fill="white"/>
<path d="M203.625 115.42C203.062 115.42 203.625 113.168 204.75 112.605C205.313 112.605 205.875 112.605 206.437 112.605V113.168H205.875C205.312 112.605 205.313 112.605 204.75 113.168C204.188 113.168 203.625 114.857 203.625 115.42Z" fill="white"/>
<path d="M205.312 115.42C205.312 114.857 205.875 112.605 207.563 112.042C208.125 112.042 208.688 112.042 209.25 112.605V113.168C208.688 112.605 208.125 112.605 207.563 112.605C206.438 113.168 205.875 114.857 205.312 115.42Z" fill="white"/>
<path d="M209.25 115.42C209.25 114.857 210.937 112.605 212.625 112.605C213.187 112.605 213.75 113.168 213.75 113.731H213.188C213.188 113.168 212.625 113.168 212.062 113.168C210.938 113.168 209.25 115.42 209.25 115.42Z" fill="white"/>
<path d="M212.062 115.983C211.5 115.42 212.062 114.857 212.625 114.294C213.75 113.731 214.312 113.168 214.875 113.168C215.437 113.168 215.437 113.731 215.437 114.294H213.75C213.75 113.731 214.312 113.731 213.75 113.731C213.187 113.731 212.625 115.42 212.062 115.983Z" fill="white"/>
<path d="M215.438 117.109C214.312 117.109 213.188 116.546 212.625 114.857H213.188C213.75 115.42 213.75 115.983 214.312 115.983C214.875 115.42 215.438 114.857 216.563 114.857C217.125 114.857 217.688 115.42 218.25 115.983C217.688 115.983 217.125 117.109 215.438 117.109ZM214.312 115.983C214.875 115.983 214.875 116.546 215.438 116.546C216.562 116.546 217.125 115.983 217.688 115.983C217.125 115.42 217.125 115.42 216.563 115.42C215.438 114.857 214.875 115.983 214.312 115.983Z" fill="white"/>
<path d="M207 115.42C207 114.857 208.688 112.042 210.375 112.605C210.938 112.605 210.937 113.168 211.5 113.168H210.938C210.938 112.605 210.375 112.605 210.375 112.605C209.25 112.605 207.562 114.294 207 115.42Z" fill="white"/>
<path d="M211.5 115.983C211.5 115.983 210.938 115.983 210.375 114.857C210.375 114.294 209.812 113.731 209.812 113.731H210.375C210.375 113.731 210.375 114.294 210.938 114.857C211.5 115.42 211.5 115.42 211.5 115.983Z" fill="white"/>
<path d="M200.812 118.235C200.25 118.235 200.812 117.109 201.375 116.546C202.5 115.42 203.625 115.42 204.75 115.42V115.983C203.625 115.42 202.5 115.983 201.937 117.109C201.375 117.109 200.812 118.235 200.812 118.235Z" fill="white"/>
<path d="M202.5 118.235C202.5 118.235 201.938 117.109 202.5 115.983C202.5 115.42 203.062 115.42 203.062 115.42V115.983C203.062 115.983 202.5 115.983 202.5 116.546C202.5 116.546 203.062 117.672 202.5 118.235Z" fill="white"/>
<path d="M204.188 117.672C203.625 117.672 204.187 115.42 205.875 114.857C206.437 114.857 207 114.857 207.563 114.857H208.125V115.42H207.563C207 115.42 207 114.857 206.438 115.42C204.75 115.983 204.188 117.672 204.188 117.672Z" fill="white"/>
<path d="M206.437 117.109C205.875 117.109 206.438 115.42 207.563 114.857C208.125 114.857 208.687 114.857 209.25 115.42L208.687 115.983C208.125 115.42 207.562 115.42 207 115.42C207 115.983 206.437 117.109 206.437 117.109Z" fill="white"/>
<path d="M207.562 118.235C207.562 117.672 209.25 115.983 210.937 115.983C211.5 115.983 212.062 115.983 212.625 116.546V117.109H212.062C211.5 116.546 211.5 116.546 210.937 116.546C209.25 115.983 207.562 118.235 207.562 118.235Z" fill="white"/>
<path d="M209.812 118.235L210.938 117.109C210.938 117.109 211.5 115.983 212.625 115.983C213.188 115.983 214.313 116.546 214.875 117.109L214.312 118.235C213.75 117.672 213.188 117.109 212.625 117.109C212.062 117.109 211.5 118.235 211.5 118.235H209.812Z" fill="white"/>
<path d="M218.25 120.487C217.687 119.924 217.125 119.361 216.562 119.361C215.437 119.361 214.312 119.924 214.312 119.924L213.188 118.235H213.75L214.875 119.361C215.437 118.798 216 118.235 217.125 118.798C217.125 119.361 217.687 119.361 218.25 120.487Z" fill="white"/>
<path d="M215.438 120.487L218.25 119.924C218.25 119.924 218.25 119.924 218.813 119.924C218.813 119.924 218.813 120.487 218.813 121.05V120.487H217.688V121.05C217.688 120.487 218.25 120.487 218.25 119.924H217.688L215.438 120.487Z" fill="white"/>
<path d="M214.312 117.672C213.75 117.672 213.75 117.109 213.75 116.546H214.312C214.312 116.546 214.312 117.109 214.312 117.672Z" fill="white"/>
<path d="M219.937 120.487C218.25 119.924 217.688 117.672 217.688 117.672H218.25C218.25 118.235 218.812 119.924 219.937 120.487C219.937 119.924 219.938 119.924 220.5 119.924L221.062 120.487C220.5 120.487 220.5 120.487 219.937 120.487Z" fill="white"/>
<path d="M217.125 118.798H216V119.361C216 118.235 216.562 117.672 216.562 117.672H217.125V118.798Z" fill="white"/>
<path d="M215.438 118.798C215.438 118.235 216 117.109 216 117.109H216.563C216.563 117.672 216 118.235 215.438 118.798Z" fill="white"/>
<path d="M219.375 124.992C218.812 124.992 217.687 124.429 217.687 123.866L217.125 122.177C217.125 122.177 217.687 122.177 218.25 122.177C219.375 122.177 219.937 122.177 220.5 122.74C221.062 123.303 221.062 123.866 220.5 124.429C220.5 124.992 219.937 124.992 219.375 124.992ZM217.687 123.303C217.687 123.866 218.25 124.429 219.375 124.429C219.937 124.429 219.937 124.429 219.937 123.866C219.937 123.303 219.937 122.74 219.937 122.177C219.937 121.614 218.812 121.614 218.25 121.614C217.687 121.614 217.687 121.614 217.687 121.614V123.303Z" fill="white"/>
<path d="M215.437 127.244C215.437 126.681 215.438 126.118 214.875 126.118C214.875 126.118 214.875 126.118 214.312 126.118C214.312 125.555 214.313 124.992 213.75 124.992H213.188H212.625V124.429V123.866C212.625 123.303 212.063 123.303 212.063 123.303C212.063 123.303 212.062 122.74 211.5 123.303L212.063 123.866V123.303C212.063 122.74 212.062 121.614 211.5 121.614C211.5 121.614 210.938 121.614 210.938 122.177C210.938 121.05 210.375 120.487 210.375 120.487C210.375 120.487 209.812 120.487 209.812 121.614C209.812 121.05 209.813 120.487 209.25 120.487C209.25 120.487 208.688 120.487 208.125 121.05C208.125 121.05 207.562 120.487 207 119.924C206.437 119.924 206.437 119.924 205.875 120.487C205.875 120.487 204.75 119.924 204.187 120.487V121.614L203.625 122.177C203.625 122.177 203.625 121.614 203.062 121.614C202.5 121.05 202.5 120.487 202.5 120.487C202.5 119.924 202.5 119.361 202.5 118.798C202.5 118.235 202.5 118.235 202.5 118.235H203.062C203.062 118.235 203.625 118.798 203.062 119.361C203.062 119.924 203.062 120.487 203.062 121.05C203.062 121.05 203.625 121.614 204.187 122.177V121.614C204.75 121.05 204.75 121.05 205.313 121.05H205.875C206.437 120.487 207 120.487 207 120.487C207.562 120.487 208.125 121.05 208.125 121.614C208.688 121.05 208.688 121.05 209.25 121.05C209.813 121.05 209.812 121.614 209.812 121.614C209.812 121.05 210.375 121.05 210.938 121.05C211.5 121.05 211.5 121.614 212.063 122.177V122.74C212.625 122.177 212.625 122.177 213.188 122.177C213.75 122.177 213.75 122.177 213.75 123.303V123.866C213.75 123.866 213.75 123.866 214.312 123.866C214.312 123.866 214.875 124.992 214.875 125.555V126.118H215.437C216 126.118 216 126.681 216 127.244H216.563L217.125 127.807H217.688C218.25 127.807 218.813 127.807 219.375 127.807C219.375 127.807 219.375 127.244 219.937 127.244C219.375 126.118 218.812 125.555 218.25 124.992C217.687 124.992 217.125 124.992 217.125 124.992H216.563V124.429C216.563 124.429 217.125 124.429 218.25 124.429C218.812 124.429 219.375 125.555 219.937 127.244H219.375C219.375 127.244 219.937 127.807 219.937 128.37C219.375 128.933 219.375 128.933 218.25 128.37L215.437 127.244Z" fill="white"/>
<path d="M201.938 120.487C201.938 119.361 200.812 118.235 200.812 118.235L201.375 117.672C201.375 118.235 202.5 119.361 201.938 120.487Z" fill="white"/>
<path d="M203.625 119.924C203.063 118.798 203.063 118.798 202.5 118.798C201.938 118.798 201.938 119.361 201.938 119.361L201.375 118.798C201.375 118.798 201.938 117.672 202.5 117.672C203.063 118.235 203.625 118.798 203.625 119.924Z" fill="white"/>
<path d="M205.875 119.924C205.312 118.798 204.75 118.235 203.625 118.235C203.063 117.672 202.5 118.235 202.5 118.235C202.5 118.235 203.063 117.672 203.625 117.672C204.75 117.672 205.312 118.235 205.875 119.924Z" fill="white"/>
<path d="M207.563 119.924C207 118.798 207 118.235 206.438 117.672C205.313 117.109 204.188 117.672 204.188 117.672V117.109C204.188 117.109 205.875 115.983 207 117.109C207.562 117.672 207.563 118.798 207.563 119.924Z" fill="white"/>
<path d="M209.812 119.924C209.812 118.798 208.687 116.546 208.687 116.546H209.25C209.25 116.546 209.812 118.798 209.812 119.924Z" fill="white"/>
<path d="M212.063 120.487C212.063 119.361 210.938 118.235 210.938 117.672L211.5 117.109C210.937 117.672 212.063 119.361 212.063 120.487Z" fill="white"/>
<path d="M212.625 118.235C212.625 118.235 213.187 117.672 214.312 117.672C214.875 117.672 215.438 118.235 216 118.798H215.437C214.875 118.235 214.312 117.672 213.75 117.672C213.187 117.672 212.625 118.235 212.625 118.235Z" fill="white"/>
<path d="M216 126.118C215.438 123.866 214.312 122.176 212.625 121.05C210.937 120.487 209.812 119.924 209.812 119.924V119.361C209.812 119.361 211.5 119.361 212.625 120.487C213.75 121.05 214.313 121.613 214.875 122.176C216 123.866 216 124.992 216 126.118Z" fill="white"/>
<path d="M218.25 120.487C218.25 119.924 218.25 119.361 218.25 119.361H218.813C218.813 119.924 218.812 119.924 218.25 120.487Z" fill="white"/>
<path d="M217.125 117.672C216 117.109 215.438 116.546 215.438 116.546H216C216 116.546 216.562 117.109 217.125 117.672C217.125 117.109 217.688 117.109 218.25 117.109L217.125 115.983V115.42L218.25 116.546C218.25 117.672 217.687 117.672 217.125 117.672Z" fill="white"/>
<path d="M208.687 120.487H207.562L205.875 119.924V119.361L207.562 119.924H208.687V120.487Z" fill="white"/>
<path d="M216 129.496C216 129.496 215.437 128.933 214.875 127.807C214.875 127.807 214.312 128.37 214.312 127.807C214.312 127.807 213.75 127.244 213.75 126.681C213.75 126.681 213.75 126.681 213.188 126.681C212.625 126.681 212.625 126.118 212.625 124.992L212.062 125.555C211.5 125.555 211.5 124.992 211.5 123.866H210.937C210.375 123.866 210.375 123.303 210.375 122.176C210.375 122.176 210.375 122.176 209.812 122.176C209.25 122.176 209.25 122.176 208.687 121.05C208.687 121.05 208.687 121.613 208.125 121.613C207.562 121.613 207 121.613 206.437 120.487L205.875 121.05C205.312 121.05 204.75 120.487 204.187 119.924C204.187 120.487 203.625 120.487 203.625 121.05C203.062 121.05 202.5 121.05 201.938 119.924H202.5C203.062 121.05 203.625 121.05 203.625 121.05C203.625 121.05 204.187 120.487 204.187 119.924V119.361L204.75 119.924C205.312 121.05 205.875 121.05 205.875 121.05C206.437 121.05 206.437 120.487 206.437 120.487C207.562 122.176 207.562 122.176 208.125 121.613V121.05V119.924L208.687 121.05C209.25 122.176 209.812 122.176 209.812 122.176L210.375 121.613L210.937 120.487V121.613C210.937 122.739 211.5 123.302 211.5 123.302H212.062H212.625V123.866C212.625 124.992 213.188 125.555 213.188 125.555C213.188 125.555 213.75 125.555 213.75 124.992L214.312 124.429V124.992C214.312 126.681 214.875 126.681 214.875 126.681C214.875 126.681 214.875 126.681 215.437 126.118L216 125.555V127.244C216 128.37 216 127.244 216 128.933C216 128.933 216.562 128.37 216.562 127.807L217.125 126.681V127.244C215.437 128.37 216 128.933 216 129.496C216.562 128.37 216.562 127.807 216.562 127.244C216.562 126.681 216 126.118 216 126.118L216.562 125.555C216.562 125.555 217.125 126.118 217.125 126.681C217.125 127.807 217.125 128.37 216 129.496Z" fill="white"/>
<path d="M214.875 128.37C214.875 128.37 213.187 126.118 210.375 124.428C208.125 122.739 204.187 121.05 199.687 121.613H197.437V121.05H199.687C201.375 121.05 203.625 121.05 205.312 121.613C207 122.176 208.687 122.739 210.375 123.865C213.187 126.118 215.437 128.37 214.875 128.37Z" fill="white"/>
<path d="M197.437 120.487L200.25 119.924V120.487L198 121.05L197.437 120.487Z" fill="white"/>
<path d="M200.812 118.798C200.812 118.798 198 119.924 198 120.487L196.875 119.924L200.812 118.798L200.25 118.235L196.875 119.924L196.312 119.361L200.812 117.672V118.235" fill="white"/>
<path d="M193.5 122.177L192.938 121.051L194.063 121.614L193.5 122.177Z" fill="white"/>
<path d="M190.688 123.866H190.125L189.562 123.303L190.688 123.866Z" fill="white"/>
</svg>
