<svg width="17" height="17" viewBox="0 0 17 17" fill="none" xmlns="http://www.w3.org/2000/svg">
<g opacity="0.5" clip-path="url(#clip0_181_329)">
<path d="M8.53047 0C3.83871 0 0 3.83871 0 8.53047C0 13.2222 3.83871 17.0609 8.53047 17.0609C13.2222 17.0609 17.0609 13.2222 17.0609 8.53047C17.0609 3.83871 13.2222 0 8.53047 0ZM8.53047 15.9642C4.3871 15.9642 1.03584 12.6129 1.03584 8.53047C1.03584 4.3871 4.3871 1.03584 8.53047 1.03584C12.6738 1.03584 15.9642 4.3871 15.9642 8.53047C15.9642 12.6129 12.6129 15.9642 8.53047 15.9642Z" fill="#024F9D"/>
<path d="M8.53036 13.9533C11.5254 13.9533 13.9533 11.5254 13.9533 8.53036C13.9533 5.53535 11.5254 3.10742 8.53036 3.10742C5.53535 3.10742 3.10742 5.53535 3.10742 8.53036C3.10742 11.5254 5.53535 13.9533 8.53036 13.9533Z" fill="white"/>
</g>
<defs>
<clipPath id="clip0_181_329">
<rect width="17" height="17" fill="white"/>
</clipPath>
</defs>
</svg>
