<svg width="21" height="20" viewBox="0 0 21 20" fill="none" xmlns="http://www.w3.org/2000/svg">
<g clip-path="url(#clip0_172_310)">
<path d="M16.1123 1.27168C17.0178 2.19653 17.9233 3.12139 18.8854 4.10404C18.659 4.27746 18.4892 4.45087 18.3194 4.62428C15.4898 7.51445 12.6601 10.4046 9.83039 13.2948C9.71721 13.4104 9.54743 13.526 9.37764 13.6416C8.18918 14.1618 6.94412 14.6821 5.75565 15.2023C5.64246 15.2601 5.58587 15.2601 5.47268 15.2601C5.24631 15.2601 5.13312 14.9711 5.18971 14.7399C5.3595 14.3931 5.52928 13.9884 5.64246 13.6416C6.03862 12.7746 6.37818 11.9075 6.77434 10.9827C6.88752 10.7514 7.00071 10.578 7.17049 10.4046C9.54742 7.97688 11.9244 5.54913 14.3013 3.12139C14.8672 2.54335 15.4332 1.96532 15.9991 1.38728C16.0557 1.32948 16.0557 1.32948 16.1123 1.27168ZM7.84962 11.2139C7.84962 11.2139 7.84962 11.2717 7.79302 11.2717C7.56665 11.7919 7.34027 12.2543 7.17049 12.7746C7.1139 12.8902 7.0573 12.948 7.0573 13.0636C7.0573 13.1214 7.17049 13.237 7.22709 13.2948C7.34027 13.2948 7.34027 13.2948 7.39687 13.2948C7.90621 13.0636 8.41555 12.8324 8.9249 12.6012C8.98149 12.5434 9.03808 12.5434 9.15127 12.4855C8.69852 12.0809 8.30236 11.6185 7.84962 11.2139Z" fill="black"/>
<path d="M9.09447 6.24277C8.86809 6.47398 8.64172 6.7052 8.47194 6.87861C8.18897 7.16763 7.906 7.45664 7.62303 7.74566C7.56644 7.80346 7.50985 7.80346 7.45325 7.80346C5.86863 7.80346 4.28401 7.80346 2.69939 7.80346C2.35982 7.80346 2.13345 7.97687 2.07686 8.3237C2.07686 8.3815 2.07686 8.4393 2.07686 8.4393C2.07686 11.5607 2.07686 14.6243 2.07686 17.7457C2.07686 18.1503 2.30323 18.3815 2.69939 18.3815C5.75544 18.3815 8.8115 18.3815 11.811 18.3815C12.2071 18.3815 12.4335 18.1503 12.4335 17.7457C12.4335 16.1272 12.4335 14.5087 12.4335 12.948C12.4335 12.8902 12.4335 12.8324 12.4901 12.7746C12.9428 12.3121 13.3956 11.8497 13.9049 11.3295L13.9615 11.2717C13.9615 11.2717 13.9615 11.2717 14.0181 11.2717C14.0181 11.3295 14.0181 11.3295 14.0181 11.3873C14.0181 13.526 14.0181 15.6647 14.0181 17.7457C14.0181 18.8439 13.2258 19.7688 12.1505 19.9422C12.0373 19.9422 11.9241 19.9422 11.811 19.9422C8.75491 19.9422 5.75544 19.9422 2.69939 19.9422C1.62411 19.9422 0.775203 19.2486 0.548828 18.1503C0.548828 18.0925 0.548828 17.9191 0.548828 17.8035C0.548828 14.7399 0.548828 11.7341 0.548828 8.67052C0.548828 8.3237 0.548828 7.97687 0.662015 7.63005C1.00158 6.763 1.79389 6.18497 2.69939 6.18497C4.79335 6.18497 6.88732 6.18497 8.98128 6.18497C9.03787 6.18497 9.03787 6.18497 9.09447 6.24277Z" fill="black"/>
<path d="M16.5649 0.809248C16.8479 0.462427 17.2441 0.17341 17.6968 0.0578027C18.2062 -0.0578043 18.6589 0.0578027 18.9985 0.404624C19.2248 0.635837 19.4512 0.867051 19.6776 1.09827C20.1303 1.56069 20.2435 2.08092 20.0172 2.71676C19.904 2.94798 19.7908 3.17919 19.5644 3.4104C19.5078 3.52601 19.3946 3.58381 19.338 3.64162C18.3759 2.65896 17.4704 1.7341 16.5649 0.809248Z" fill="black"/>
</g>
<defs>
<clipPath id="clip0_172_310">
<rect width="19.5814" height="20" fill="white" transform="translate(0.548828)"/>
</clipPath>
</defs>
</svg>
