<svg width="23" height="17" viewBox="0 0 23 17" fill="none" xmlns="http://www.w3.org/2000/svg">
<g clip-path="url(#clip0_182_471)">
<path d="M19.4967 10.7171C20.1365 11.7737 20.0736 12.9993 19.3499 13.9713C18.1543 15.5878 16.4448 16.4542 14.5569 16.824C12.5328 17.2149 10.5401 16.8663 8.61029 16.1161C6.68052 15.3554 4.95001 14.2671 3.34536 12.9676C2.83145 12.5555 2.48535 11.985 1.919 11.6152C1.55192 11.3722 1.68827 10.7065 2.10778 10.6114C3.78585 10.2311 5.13879 9.14284 6.68052 8.45607C8.29565 7.74818 9.92128 7.04029 11.6728 6.82898C12.9103 6.68106 14.1794 6.75502 15.3121 7.44178C14.8926 7.44178 14.473 7.42065 14.0535 7.44178C13.4557 7.47348 12.8894 7.33612 12.3125 7.24103C11.505 7.11425 11.0435 7.31499 10.2464 7.9278C10.6974 7.71648 11.1693 7.558 11.6623 7.47348C11.8615 7.44178 12.0294 7.44178 12.2181 7.50517C12.8998 7.72705 13.5711 7.93836 14.3367 7.77988C14.8611 7.66366 15.4379 7.71648 15.9728 7.9278C16.1092 7.98062 16.2665 8.06515 16.3714 7.8644C16.5392 7.98062 16.7699 7.99119 16.8957 8.18137C16.5077 8.16024 16.256 8.4772 15.9413 8.62512C15.4065 8.8787 14.903 8.99492 14.3052 8.82587C13.4557 8.59343 12.5852 8.62512 11.7567 8.93152C11.2428 9.13227 10.6974 9.25906 10.1835 9.43867C9.65908 9.62885 9.1242 9.4915 8.5159 9.57602C9.54372 9.87186 10.4457 9.66055 11.3371 9.39641C12.0294 9.1851 12.7216 8.98435 13.4662 9.01605C13.7703 9.02661 14.0535 9.10057 14.3262 9.16397C14.8926 9.29075 15.417 9.30132 15.9309 8.99492C16.3294 8.76247 16.7384 8.55116 17.116 8.28702C18.0075 8.88926 18.836 9.57602 19.4233 10.5058C18.406 10.2628 17.4726 10.5903 16.5392 10.9284C15.6267 11.2559 14.7143 11.5412 13.7284 11.2771C14.5674 11.5412 15.417 11.5518 16.235 11.3193C16.9692 11.108 17.7138 10.9179 18.4584 10.7382C18.6053 10.7065 18.7521 10.7277 18.9199 10.7805C19.0772 10.8439 19.308 10.939 19.4967 10.7171Z" fill="#DA6627"/>
<path d="M17.5041 8.07554C17.4202 7.98045 17.2314 8.03328 17.1894 7.86423C17.4621 7.34651 18.0389 7.1669 18.4375 6.78654C18.9304 6.31109 19.287 5.76168 19.5282 5.14887C19.8953 4.22967 20.3358 3.36329 21.0909 2.60257C20.6295 2.79275 20.2309 3.24707 19.8848 3.80705C19.5282 4.36702 19.266 4.96926 18.9829 5.56093C18.6892 6.16317 18.2067 6.5541 17.6824 6.92389C17.3887 7.1352 17.0636 7.31482 16.8853 7.64235C16.3399 7.4416 15.8155 7.18803 15.3121 6.90276C15.6267 6.71258 15.826 6.41674 16.0357 6.11034C15.7631 6.42731 15.2282 6.41674 15.1023 6.90276C14.4626 6.67032 13.8018 6.46957 13.1096 6.48014C13.3089 6.23713 13.5921 6.12091 13.8752 6.06808C14.8506 5.85677 15.6057 5.2334 16.3923 4.69456C17.1684 4.14515 17.9026 3.52178 18.899 3.24707C18.7102 3.6697 18.2487 3.84931 18.1333 4.27193C17.7033 4.65229 17.7977 5.25453 17.525 5.69828C18.0075 5.40245 17.8606 4.74738 18.2382 4.38815C18.7836 3.70139 19.4233 3.10972 20.189 2.46522C18.5948 2.89841 17.2628 3.54291 16.0567 4.50438C15.375 5.04322 14.6513 5.5398 13.7913 5.75111C13.4872 5.82507 13.225 5.97299 12.9733 6.1526C12.8474 6.24769 12.7845 6.35335 12.8999 6.4907C12.4489 6.50127 11.9874 6.33222 11.5364 6.4907C11.6833 6.02582 11.935 5.62433 12.2706 5.2651C12.6901 4.81078 13.1516 4.53607 13.7808 4.5889C13.9487 4.59947 14.0955 4.53607 14.2213 4.45155C15.2701 3.78592 16.4762 3.41612 17.525 2.73993C18.1019 2.3807 18.7416 2.16938 19.4443 2.22221C18.899 2.14825 18.3746 2.12712 17.8502 2.35956C17.3992 2.56031 16.9587 2.73993 16.5287 2.98293C15.7211 3.43725 14.7982 3.64856 14.0221 4.17684C13.9382 4.22967 13.8543 4.2825 13.7389 4.27193C12.386 4.20854 11.8196 5.17001 11.3477 6.20543C11.3057 6.28996 11.2533 6.38505 11.2323 6.4907C10.8652 6.67032 10.4352 6.59636 10.0786 6.80767C10.1101 6.5541 10.1311 6.28996 10.2884 6.06808C10.6345 5.69828 10.9806 5.31792 11.3477 4.95869C12.6272 3.65913 14.1584 2.77162 15.847 2.10599C17.1475 1.59884 18.4899 1.23961 19.8534 1.01774C20.4302 0.922648 21.0385 0.827558 21.6363 0.890951C21.867 0.912082 22.0873 0.901516 22.3285 0.806426C22.7795 0.647943 23.157 1.07057 22.9578 1.52489C22.0978 3.44782 21.8461 5.56093 21.0804 7.51556C20.7029 8.46646 20.3148 9.41737 19.7904 10.3154C19.6436 10.1675 19.4758 10.0724 19.4024 9.88225C19.3814 9.6815 19.6016 9.51245 19.4443 9.22719C19.4129 9.44906 19.2451 9.51245 19.1926 9.67094C18.9514 9.38567 18.6997 9.11096 18.4585 8.82569C18.9514 7.92762 19.6646 7.21973 20.3358 6.45901C19.8848 6.77597 19.4863 7.15633 19.1402 7.56839C18.7941 7.98045 18.406 8.17063 17.8816 8.0861C17.7453 8.06497 17.6194 8.07554 17.5041 8.07554Z" fill="#D96627"/>
<path d="M10.2674 6.06815C10.1101 6.29002 10.0682 6.5436 10.0577 6.80774C9.63816 6.98735 9.4284 6.8183 9.27109 6.40625C9.11377 6.00475 8.79913 5.66666 8.69425 5.2229C8.62083 5.00102 8.45303 4.83198 8.27473 4.52557C8.27473 4.9165 8.42156 5.12781 8.58937 5.32856C8.72571 5.69835 8.86206 6.05758 9.00889 6.41681C9.09279 6.61756 9.38645 6.82887 9.13474 7.01905C8.90401 7.1881 8.61035 7.31488 8.25376 7.1564C6.85886 6.52247 5.90446 5.49761 5.443 4.02899C5.06543 2.84565 5.15982 1.6623 5.57934 0.478961C5.7891 -0.112711 6.15617 -0.0387516 6.5652 0.0880352C8.53693 0.711404 9.77451 2.04267 10.2779 4.06069C10.4248 4.71575 10.3513 5.40252 10.2674 6.06815Z" fill="#6BBE45"/>
<path d="M6.28217 8.18125C5.00264 8.83631 3.81751 9.66043 2.44359 10.1147C2.3492 10.1464 2.29676 10.1887 2.18139 10.1359C1.38431 9.76608 0.671133 9.3012 0.125761 8.5933C-0.0210695 8.40312 -0.0315574 8.30803 0.115273 8.10729C1.10114 6.77603 2.39115 6.03644 4.04824 5.96248C5.45362 5.89908 6.67022 6.32171 7.68755 7.31487C7.84487 7.47335 7.86584 7.48392 7.7295 7.54731C7.33096 7.74806 6.97437 8.05446 6.49193 7.96994C5.86265 7.95937 5.22289 7.95937 4.6041 8.07559C4.22654 8.07559 3.85946 8.07559 3.48189 8.11785C3.85946 8.22351 4.23702 8.17068 4.61459 8.18125C5.15996 8.18125 5.72631 8.18125 6.28217 8.18125Z" fill="#54B948"/>
<path d="M18.1333 4.27198C18.2487 3.83879 18.7102 3.66974 18.8989 3.23655C17.4306 3.68031 16.4238 4.77912 15.1862 5.50815C14.7667 5.76172 14.3367 5.89908 13.8857 6.05756C13.5921 6.15265 13.3089 6.23717 13.0991 6.48018C13.0257 6.48018 12.9628 6.48018 12.8894 6.48018C12.6901 6.00473 13.2145 5.93077 13.3508 5.89908C14.9031 5.53985 16.0357 4.46216 17.3048 3.61691C18.1648 3.04637 19.1611 2.85619 20.0946 2.47583C19.4443 3.07807 18.7941 3.68031 18.2277 4.36707C18.1648 4.37763 18.1333 4.34594 18.1333 4.27198Z" fill="#6B1910"/>
<path d="M11.2114 6.49078C11.5051 5.61384 11.977 4.88482 12.8056 4.41993C12.8895 4.36711 12.9734 4.29315 13.0678 4.28258C14.62 4.15579 15.8366 3.18376 17.2105 2.62379C18.1439 2.24343 18.3537 2.07438 19.4864 2.23286C18.7942 2.18003 18.1335 2.33852 17.5776 2.69775C16.5288 3.37394 15.3227 3.74374 14.2844 4.40937C13.9278 4.64181 13.5607 4.50446 13.2146 4.62068C12.3231 4.93765 11.8302 5.62441 11.5261 6.48022C11.4212 6.49078 11.3163 6.49078 11.2114 6.49078Z" fill="#6A1A10"/>
<path d="M17.085 8.28704C16.3298 8.72023 15.6481 9.35416 14.6727 9.2485C14.2427 9.19568 13.8442 9.01606 13.3932 9.01606C12.743 9.01606 12.1347 9.15341 11.5264 9.34359C10.5405 9.65 9.54414 9.893 8.48486 9.60773C8.52681 9.5866 8.55828 9.54434 8.58974 9.54434C9.67 9.66056 10.6663 9.33303 11.6522 8.96323C12.4703 8.65683 13.3303 8.56174 14.1798 8.82588C15.0503 9.10059 15.7635 8.74136 16.4662 8.31873C16.6025 8.23421 16.7179 8.16025 16.8857 8.18138C16.9381 8.22364 17.0115 8.25534 17.085 8.28704Z" fill="#6A1A10"/>
<path d="M16.875 7.653C17.1687 7.12472 17.735 6.89228 18.1755 6.54362C18.6684 6.16326 18.9201 5.66668 19.1719 5.15953C19.6019 4.27202 20.0528 3.40564 20.7765 2.71888C20.8499 2.65549 20.8919 2.5287 21.0807 2.62379C20.2311 3.39508 19.8116 4.40937 19.4026 5.42367C19.067 6.24778 18.4587 6.81832 17.7665 7.30434C17.5357 7.46282 17.347 7.63187 17.1896 7.85375C17.0218 7.88545 16.917 7.81149 16.875 7.653Z" fill="#6E1C12"/>
<path d="M16.3507 7.86439C16.2877 8.08627 16.0885 7.99118 16.015 7.95948C15.3124 7.68478 14.6097 7.71647 13.886 7.85383C13.435 7.93835 12.9526 7.82213 12.575 7.63195C11.8723 7.28329 11.2745 7.56856 10.6452 7.7693C10.4984 7.82213 10.3621 7.90665 10.1104 8.04401C10.8445 7.30442 11.8199 7.08254 12.6904 7.32555C13.5504 7.56856 14.4419 7.37838 15.3124 7.4312C15.7004 7.4629 15.9836 7.7693 16.3507 7.86439Z" fill="#6F1F13"/>
<path d="M19.4967 10.717C19.4548 10.9177 19.2869 10.8332 19.203 10.8121C18.1962 10.5796 17.2942 11.0023 16.3713 11.2558C15.4484 11.5094 14.5569 11.5094 13.5605 11.3192C13.9171 11.1185 14.1584 11.3615 14.431 11.3509C15.1232 11.3298 15.763 11.1713 16.4133 10.9389C17.3677 10.6008 18.343 10.231 19.3918 10.4951C19.4233 10.5796 19.4548 10.6536 19.4967 10.717Z" fill="#6D1E11"/>
<path d="M17.5044 8.07554C18.291 8.21289 18.8993 7.95932 19.3817 7.30426C19.6334 6.95559 19.9586 6.67032 20.3256 6.41675C19.6754 7.1986 18.9308 7.90649 18.4483 8.81513C18.3749 8.78344 18.312 8.74117 18.2385 8.70948C18.2385 8.55099 18.5532 8.4876 18.4064 8.33968C18.3015 8.23403 18.0707 8.20233 17.9239 8.39251C17.7771 8.29742 17.5568 8.29742 17.5044 8.07554Z" fill="#762116"/>
<path d="M15.0918 6.91347C15.1862 6.40632 15.7945 6.48028 16.0042 6.08936C15.8679 6.45915 15.5952 6.69159 15.3016 6.91347C15.2281 6.91347 15.1547 6.91347 15.0918 6.91347Z" fill="#7C2518"/>
<path d="M17.9238 8.39253C18.0707 8.17065 18.3224 8.24461 18.4168 8.35027C18.5426 8.47706 18.2385 8.55101 18.2385 8.7095C18.0811 8.6461 17.9763 8.54045 17.9238 8.39253Z" fill="#C05A2B"/>
<path d="M19.1821 9.66051C19.2031 9.48089 19.4653 9.47033 19.3814 9.18506C19.6331 9.48089 19.3604 9.66051 19.3919 9.87182C19.2765 9.85069 19.2031 9.77673 19.1821 9.66051Z" fill="#A1462C"/>
<path d="M16.3507 13.8866C16.0046 13.9289 15.7424 14.2247 15.3753 14.2036C15.3334 14.2036 15.2705 14.2564 15.26 14.2986C15.0712 15.1439 14.4105 14.9431 13.8546 14.9326C13.068 14.9114 12.2395 15.1122 11.5053 14.6579C10.5614 14.0662 9.5126 13.8549 8.44284 13.6753C7.12136 13.4534 5.93622 12.8723 4.78255 12.2278C4.73011 12.1961 4.66719 12.175 4.61475 12.1116C5.66354 12.1855 6.70184 12.3757 7.74015 12.1961C7.81356 12.1961 7.84502 12.2278 7.84502 12.3018C7.26819 12.4285 6.69135 12.5342 6.00964 12.5131C6.7333 12.9251 7.44648 13.1047 8.18064 13.2632C9.39724 13.5168 10.6348 13.6541 11.6941 14.4043C11.9248 14.5628 12.229 14.6367 12.5436 14.6367C13.2253 14.6156 13.9175 14.6367 14.5992 14.6262C14.6831 14.6262 14.809 14.7001 14.851 14.5522C15.0502 13.9289 15.6271 13.9289 16.12 13.7915C16.2144 13.7915 16.3402 13.7387 16.3507 13.8866Z" fill="#6B1A10"/>
<path d="M3.6709 11.2982C5.03433 11.6152 6.20897 11.0129 7.42557 10.622C8.15973 10.3896 8.91486 10.2945 9.66999 10.6009C10.3832 10.8861 11.0334 10.6114 11.6103 10.2416C11.9878 10.0092 12.3339 9.87184 12.7744 9.8824C13.7183 9.8824 14.6517 9.90354 15.5852 10.1043C14.8091 10.1043 14.0434 10.1254 13.2673 10.0937C12.6905 10.0726 12.1661 10.1994 11.7151 10.5269C11.0859 10.9812 10.4356 11.1714 9.6595 10.9601C8.49534 10.6431 7.38362 10.939 6.2719 11.2982C5.43287 11.5518 4.5414 11.5306 3.6709 11.2982Z" fill="#6B1A10"/>
<path d="M15.8261 15.4716C15.2492 15.7357 14.5675 15.3765 14.0117 15.7674C13.2356 16.3169 12.3546 16.3591 11.4526 16.3063C11.1485 16.2852 10.8758 16.1478 10.666 15.9154C10.4353 15.6512 10.1521 15.5033 9.82699 15.3976C8.57893 14.9856 7.42526 14.3411 6.1772 13.929C5.89402 13.8339 5.63183 13.6543 5.36963 13.3057C6.64915 14.0241 8.0021 14.246 9.20821 14.8482C9.80602 15.1441 10.4248 15.3448 10.9912 15.7674C11.6414 16.2429 12.5014 16.1372 13.2041 15.7991C13.9487 15.4399 14.6934 15.3131 15.501 15.3765C15.6058 15.4082 15.7736 15.2709 15.8261 15.4716Z" fill="#691A10"/>
<path d="M9.8584 12.6716C10.5821 12.6505 11.2848 12.5659 11.9979 12.8829C12.3965 13.0519 12.9209 12.9674 13.3823 12.9252C14.1165 12.8618 14.7563 13.1048 15.3855 13.464C14.4521 13.1048 13.5082 13.3478 12.5748 13.3372C11.6413 13.3266 10.8338 12.6505 9.8584 12.6716Z" fill="#6F1E12"/>
<path d="M12.2915 11.9636C12.8474 11.6889 13.2983 11.5621 13.8542 11.8263C14.7142 12.2383 15.6791 12.2383 16.602 12.4074C16.8118 12.4496 16.9586 12.1749 17.1998 12.3545C16.5706 12.6398 15.9518 12.6609 15.291 12.5659C14.6513 12.4708 14.043 12.2912 13.4871 11.9742C13.0991 11.7629 12.732 12.0376 12.2915 11.9636Z" fill="#722213"/>
<path d="M8.17023 8.6039C7.27876 8.84691 6.639 9.49141 5.90484 9.98799C5.39093 10.3261 4.84556 10.6008 4.19531 10.5797C5.20215 10.3895 5.88387 9.63932 6.68095 9.08992C7.07949 8.81521 7.48852 8.6039 7.96047 8.49824C8.03389 8.50881 8.15974 8.45598 8.17023 8.6039Z" fill="#6D1F12"/>
<path d="M15.8264 15.4715C15.7844 15.2602 15.6166 15.4081 15.5117 15.3659C16.2773 15.1123 17.0639 14.9221 17.7876 14.5417C17.1898 14.9855 16.5395 15.3025 15.8264 15.4715Z" fill="#832919"/>
<path d="M16.3504 13.8866C16.3399 13.7281 16.2245 13.7915 16.1406 13.7809C16.644 13.5696 17.158 13.4005 17.7243 13.4428C17.2628 13.5907 16.8014 13.7386 16.3504 13.8866Z" fill="#9A3420"/>
<path d="M7.85537 12.3018C7.85537 12.2279 7.8239 12.1962 7.75049 12.1962C8.29586 11.6785 8.96709 11.7524 9.63831 11.8475C8.97757 11.7736 8.39025 11.9637 7.85537 12.3018Z" fill="#993420"/>
<path d="M8.17021 8.60377C8.15972 8.44528 8.04435 8.50868 7.96045 8.49811C8.27509 8.27623 8.62119 8.27623 9.03022 8.29737C8.75753 8.54037 8.43241 8.49811 8.17021 8.60377Z" fill="#9B3821"/>
<path d="M4.82422 12.6504C5.02349 12.7983 5.25422 12.9145 5.32764 13.1787C5.32764 13.1892 5.24374 13.2632 5.22276 13.2526C4.97105 13.1258 4.9291 12.8723 4.82422 12.6504Z" fill="#A73823"/>
<path d="M21.5628 3.13086C21.0699 4.10289 21.1223 5.18058 20.9441 6.20544C20.8287 6.83937 20.5875 7.45218 20.147 7.96989C20.2938 7.40991 20.5875 6.8922 20.6609 6.30053C20.7658 5.55037 20.7867 4.76852 21.0594 4.0395C21.1853 3.7014 21.3531 3.41613 21.5628 3.13086Z" fill="#6F1E13"/>
<path d="M18.1337 4.27197C18.1337 4.34593 18.1651 4.37763 18.2385 4.37763C17.9868 4.6312 17.9449 4.99043 17.84 5.3074C17.7771 5.50814 17.6617 5.6138 17.5044 5.73002C17.7876 5.28627 17.7037 4.67346 18.1337 4.27197Z" fill="#97321F"/>
</g>
<defs>
<clipPath id="clip0_182_471">
<rect width="23" height="17" fill="white"/>
</clipPath>
</defs>
</svg>
