<svg width="22" height="22" viewBox="0 0 22 22" fill="none" xmlns="http://www.w3.org/2000/svg">
<g clip-path="url(#clip0_181_322)">
<g opacity="0.7">
<path opacity="0.85" d="M20.5113 17.4511C20.4286 18.0301 20.4286 18.5263 20.3459 19.1052C20.0151 20.8421 18.5264 22 16.7895 22C9.59402 22.0827 2.97748 17.2857 0.827107 10.421C0.330866 8.7669 0.0827456 7.11276 3.88576e-05 5.37592C-0.0826679 3.55637 1.32335 1.57141 3.72184 1.57141C4.30079 1.57141 4.87974 1.57141 5.45869 1.57141C5.95493 1.57141 6.20305 1.73682 6.36846 2.23307C6.8647 3.72179 7.36094 5.21051 7.85718 6.78194C7.93989 7.19547 7.85718 7.44359 7.44365 7.77442C7.03011 8.10525 6.69929 8.35337 6.28575 8.68419C6.12034 8.7669 6.12034 8.93231 6.20305 9.09773C7.60906 12.1579 9.84214 14.391 12.9023 15.797C13.0677 15.8797 13.2331 15.8797 13.3158 15.7143C13.6467 15.3007 13.8948 14.9699 14.2256 14.5564C14.4737 14.2255 14.8045 14.0601 15.2181 14.2255C16.7068 14.7218 18.2782 15.218 19.767 15.797C20.1805 15.9624 20.3459 16.2105 20.3459 16.624C20.5113 16.8722 20.5113 17.203 20.5113 17.4511ZM4.96244 3.14284C4.54891 3.14284 4.13538 3.14284 3.80455 3.14284C2.48124 3.14284 1.57147 3.96991 1.57147 5.29322C1.57147 6.53382 1.65417 7.77442 1.985 8.93231C3.47372 14.3083 6.8647 17.8646 12.0752 19.6842C13.5639 20.1804 15.0527 20.4286 16.6241 20.4286C17.782 20.4286 18.6091 19.7669 18.7745 18.609C18.8572 18.1128 18.7745 17.5338 18.7745 17.0376C17.6166 16.624 16.4587 16.2932 15.3008 15.8797C15.2181 15.8797 15.0527 15.9624 14.97 16.0451C14.6391 16.3759 14.391 16.7895 14.0602 17.1203C13.6467 17.6165 13.3985 17.6992 12.8196 17.4511C11.6617 17.0376 10.5865 16.4586 9.59402 15.7143C7.19553 13.9774 5.54139 11.7443 4.4662 9.01502C4.30079 8.51878 4.30079 8.18795 4.79703 7.85713C5.21057 7.5263 5.54139 7.27818 5.95493 6.94735C6.03763 6.86464 6.12034 6.69923 6.03763 6.61652C5.70681 5.45863 5.37598 4.30073 4.96244 3.14284Z" fill="#A7A9AC"/>
<path d="M21.2558 11C20.8423 11 20.5115 10.6692 20.4288 10.2556C20.1806 7.69172 19.1054 5.62406 17.2032 3.96992C15.7972 2.72932 14.2258 1.98496 12.3235 1.73684C12.1581 1.73684 11.9927 1.65413 11.7445 1.65413C11.2483 1.57142 10.9175 1.2406 10.9175 0.827063C10.9175 0.330823 11.331 0.0827026 11.8273 0.0827026C14.143 0.248116 16.2107 1.15789 18.0303 2.64661C20.3461 4.63157 21.5867 7.11278 21.9175 10.0902C22.0829 10.5865 21.7521 11 21.2558 11Z" fill="#A7A9AC"/>
<path d="M18.857 10.0902C18.857 10.5038 18.6089 10.9173 18.1954 10.9173C17.7818 11 17.3683 10.6692 17.2856 10.1729C16.872 7.44361 15.3006 5.62406 12.654 4.79699C12.3232 4.71428 12.075 4.63158 11.7442 4.63158C11.248 4.54887 10.9999 4.21804 11.0826 3.80451C11.0826 3.39098 11.4961 3.06015 11.9923 3.14285C13.0675 3.22556 14.1427 3.55639 15.0525 4.13534C17.2029 5.37594 18.4435 7.27819 18.9397 9.7594C18.857 9.8421 18.857 10.0075 18.857 10.0902Z" fill="#A7A9AC"/>
<path d="M14.8873 11C14.4737 11 14.2256 10.8346 14.1429 10.421C13.8121 9.09774 12.985 8.27067 11.6617 7.93984C11.2482 7.85713 11 7.4436 11.0827 7.03007C11.1654 6.61653 11.579 6.36841 12.0752 6.45112C13.8948 6.78195 15.3835 8.35337 15.7143 10.0902C15.7143 10.5037 15.3835 11 14.8873 11Z" fill="#A7A9AC"/>
</g>
</g>
<defs>
<clipPath id="clip0_181_322">
<rect width="22" height="22" fill="white"/>
</clipPath>
</defs>
</svg>
