<svg width="21" height="20" viewBox="0 0 21 20" fill="none" xmlns="http://www.w3.org/2000/svg">
<path d="M16.4003 1.25723C17.3251 2.18208 18.25 3.10694 19.2327 4.08959C19.0014 4.26301 18.828 4.43642 18.6546 4.60983C15.7645 7.5 12.8743 10.3902 9.98411 13.2803C9.8685 13.396 9.69509 13.5116 9.52168 13.6272C8.30781 14.1474 7.03613 14.6676 5.82226 15.1879C5.70665 15.2457 5.64885 15.2457 5.53324 15.2457C5.30203 15.2457 5.18642 14.9566 5.24422 14.7254C5.41763 14.3786 5.59104 13.974 5.70665 13.6272C6.11127 12.7601 6.4581 11.8931 6.86272 10.9682C6.97833 10.737 7.09393 10.5636 7.26734 10.3902C9.69509 7.96243 12.1228 5.53468 14.5506 3.10694C15.1286 2.5289 15.7066 1.95087 16.2847 1.37283C16.3425 1.31503 16.3425 1.31503 16.4003 1.25723ZM7.96099 11.1994C7.96099 11.1994 7.96099 11.2572 7.90318 11.2572C7.67197 11.7775 7.44075 12.2399 7.26734 12.7601C7.20954 12.8757 7.15174 12.9335 7.15174 13.0491C7.15174 13.1069 7.26734 13.2225 7.32515 13.2803C7.44075 13.2803 7.44075 13.2803 7.49856 13.2803C8.01879 13.0491 8.53902 12.8179 9.05925 12.5867C9.11706 12.5289 9.17486 12.5289 9.29047 12.4711C8.82804 12.0665 8.42341 11.604 7.96099 11.1994Z" fill="black"/>
<path d="M9.23272 6.22832C9.0015 6.45953 8.77029 6.69075 8.59688 6.86416C8.30786 7.15318 8.01885 7.44219 7.72983 7.73121C7.67202 7.78901 7.61422 7.78901 7.55642 7.78901C5.93792 7.78901 4.31942 7.78901 2.70093 7.78901C2.35411 7.78901 2.12289 7.96242 2.06509 8.30925C2.06509 8.36705 2.06509 8.42485 2.06509 8.42485C2.06509 11.5462 2.06509 14.6098 2.06509 17.7312C2.06509 18.1358 2.2963 18.367 2.70093 18.367C5.82231 18.367 8.9437 18.367 12.0073 18.367C12.4119 18.367 12.6431 18.1358 12.6431 17.7312C12.6431 16.1127 12.6431 14.4942 12.6431 12.9335C12.6431 12.8757 12.6431 12.8179 12.7009 12.7601C13.1634 12.2977 13.6258 11.8353 14.146 11.315L14.2038 11.2572C14.2038 11.2572 14.2038 11.2572 14.2616 11.2572C14.2616 11.315 14.2616 11.315 14.2616 11.3728C14.2616 13.5116 14.2616 15.6503 14.2616 17.7312C14.2616 18.8295 13.4524 19.7543 12.3541 19.9277C12.2385 19.9277 12.1229 19.9277 12.0073 19.9277C8.8859 19.9277 5.82231 19.9277 2.70093 19.9277C1.60266 19.9277 0.735608 19.2341 0.504395 18.1358C0.504395 18.078 0.504395 17.9046 0.504395 17.789C0.504395 14.7254 0.504395 11.7197 0.504395 8.65607C0.504395 8.30925 0.504395 7.96242 0.620001 7.6156C0.966822 6.74855 1.77607 6.17052 2.70093 6.17052C4.83965 6.17052 6.97838 6.17052 9.11711 6.17052C9.17491 6.17052 9.17492 6.17052 9.23272 6.22832Z" fill="black"/>
<path d="M16.8628 0.794798C17.1518 0.447977 17.5564 0.15896 18.0189 0.0433526C18.5391 -0.0722543 19.0015 0.0433526 19.3483 0.390173C19.5796 0.621387 19.8108 0.852601 20.042 1.08382C20.5044 1.54624 20.62 2.06647 20.3888 2.70231C20.2732 2.93353 20.1576 3.16474 19.9264 3.39595C19.8686 3.51156 19.753 3.56936 19.6952 3.62717C18.7125 2.64451 17.7876 1.71965 16.8628 0.794798Z" fill="black"/>
</svg>
