<svg width="16" height="16" viewBox="0 0 16 16" fill="none" xmlns="http://www.w3.org/2000/svg">
<path d="M8.02446 13.523C5.90626 13.523 3.76158 13.523 1.64338 13.523C1.21974 13.523 0.902011 13.3822 0.690191 13.0535C0.47837 12.7248 0.504848 12.3961 0.716668 12.0674C1.00792 11.5978 1.32565 11.1283 1.56395 10.6352C1.88168 10.0013 2.01407 9.34395 2.01407 8.63961C2.01407 7.91179 1.98759 7.18397 2.04054 6.45615C2.14645 4.15531 4.02636 2.11272 6.54172 1.54925C6.67411 1.52577 6.72706 1.47882 6.72706 1.33795C6.72706 0.516216 7.6273 -0.047256 8.47458 0.23448C8.97765 0.398826 9.32186 0.844909 9.34834 1.36143C9.34834 1.47882 9.37482 1.52577 9.5072 1.54925C9.56016 1.54925 9.61311 1.57273 9.66607 1.59621C9.9838 1.69012 10.1162 1.85446 10.1162 2.15968C10.1162 3.14575 10.5133 3.94401 11.3871 4.55444C11.9167 4.93008 12.5256 5.11791 13.1876 5.14139C13.6642 5.16486 13.823 5.25878 13.9025 5.68138C13.9819 6.10398 14.0349 6.52659 14.0349 6.92571C14.0613 7.53614 14.0349 8.14657 14.0349 8.757C14.0613 9.76655 14.3791 10.6822 14.9616 11.5274C15.094 11.7152 15.2263 11.9265 15.3587 12.1378C15.7559 12.7717 15.2528 13.5465 14.432 13.5465C12.2873 13.523 10.1691 13.523 8.02446 13.523Z" fill="black"/>
<path d="M15.7822 2.2304C15.7822 3.47474 14.6967 4.46081 13.3198 4.46081C11.943 4.46081 10.8574 3.47474 10.8574 2.2304C10.8574 1.00954 11.9695 -1.04904e-05 13.3198 -1.04904e-05C14.6702 -1.04904e-05 15.7822 0.986066 15.7822 2.2304ZM13.7435 3.59213C13.7435 2.67648 13.7435 1.78432 13.7435 0.845198C13.5846 0.845198 13.3728 0.82172 13.2934 0.892154C13.0551 1.07998 12.7903 1.22085 12.4725 1.29128C12.4725 1.36171 12.4725 1.40867 12.4725 1.45563C12.4725 1.50258 12.4725 1.54954 12.4725 1.61997C12.552 1.61997 12.6314 1.61997 12.6844 1.61997C12.9227 1.61997 12.9756 1.66693 12.9756 1.87823C12.9756 2.39475 12.9756 2.88779 12.9756 3.4043C12.9756 3.47474 12.9756 3.52169 12.9756 3.59213C13.2404 3.59213 13.4787 3.59213 13.7435 3.59213Z" fill="black"/>
<path d="M8.02468 14.11C8.52775 14.11 9.0573 14.11 9.56038 14.11C9.82515 14.11 9.90458 14.2508 9.82515 14.4621C9.5339 15.1195 8.81901 15.5656 8.02468 15.5656C7.23036 15.5656 6.51546 15.1195 6.22421 14.4621C6.14478 14.2508 6.22421 14.11 6.48899 14.11C6.99206 14.11 7.49513 14.11 8.02468 14.11Z" fill="black"/>
<path d="M13.7435 3.59232C13.5052 3.59232 13.2669 3.59232 13.0021 3.59232C13.0021 3.52189 13.0021 3.45145 13.0021 3.4045C13.0021 2.88798 13.0021 2.39494 13.0021 1.87843C13.0021 1.66713 12.9491 1.64365 12.7108 1.62017C12.6314 1.62017 12.5785 1.62017 12.499 1.62017C12.499 1.57321 12.499 1.50278 12.499 1.45582C12.499 1.40887 12.499 1.36191 12.499 1.29148C12.8168 1.22104 13.0815 1.08018 13.3198 0.892351C13.3993 0.821917 13.6111 0.868873 13.7699 0.845395C13.7435 1.78452 13.7435 2.67668 13.7435 3.59232Z" fill="white"/>
</svg>
