<svg width="12" height="10" viewBox="0 0 12 10" fill="none" xmlns="http://www.w3.org/2000/svg">
<path d="M10.7001 4.19997H2.0001C2.3001 3.89997 2.7001 3.49997 3.0001 3.19997C3.7001 2.49997 4.4001 1.79997 5.2001 0.999966C5.3001 0.899966 5.4001 0.699966 5.3001 0.599966C5.3001 0.399966 5.2001 0.299966 5.0001 0.299966C4.8001 0.199966 4.7001 0.299966 4.5001 0.399966C3.2001 1.69997 1.8001 3.09997 0.500098 4.39997C0.300098 4.59997 0.300098 4.89997 0.500098 5.09997C1.6001 6.19997 2.6001 7.29997 3.7001 8.39997C4.0001 8.69997 4.3001 8.99997 4.6001 9.29997C4.7001 9.39997 4.9001 9.49997 5.1001 9.39997C5.3001 9.29996 5.4001 9.19997 5.4001 8.99997C5.4001 8.79997 5.3001 8.69997 5.2001 8.59997C4.2001 7.59997 3.2001 6.49997 2.1001 5.49997H10.8001C11.1001 5.49997 11.4001 5.19997 11.4001 4.89997C11.4001 4.59997 11.1001 4.19997 10.7001 4.19997Z" fill="white"/>
</svg>
